<svg id="图层_1" data-name="图层 1" xmlns="http://www.w3.org/2000/svg" viewBox="0 0 544.98 128.51"><defs><style>.cls-1{fill:#d7000f;}.cls-1,.cls-2{fill-rule:evenodd;}.cls-2,.cls-3{fill:#005bac;}</style></defs><title>泰豪红外标志</title><path class="cls-1" d="M88,31.71c3.52-2.87,6.86-6.25,8-11.52a22.66,22.66,0,0,0,.33-2.92,10.93,10.93,0,0,0-2-7.68A7.35,7.35,0,0,0,87.8,7c-6.05.35-9.07,5.61-9.74,11.39-.78,6.57.8,13.24,2.15,18.51A43,43,0,0,0,88,31.71m14.84-19.27a96.41,96.41,0,0,1,13.42-8.51A37.23,37.23,0,0,1,124.07.8a19,19,0,0,1,4.7-.8,8.55,8.55,0,0,1,4.57.89A4.29,4.29,0,0,1,135,3.25c.71,2.22-.22,4.68-1,6.35a44.21,44.21,0,0,1-6.13,9.68,15.47,15.47,0,0,1-1.88,2,35.29,35.29,0,0,0,4.77-8.8,11.63,11.63,0,0,0,.76-3.75,3.53,3.53,0,0,0-3-3.73,17.45,17.45,0,0,0-6.2.13,54.92,54.92,0,0,0-10.4,3.15,9.17,9.17,0,0,1,1.76,6.48,15.77,15.77,0,0,1-2.16,6.26,33,33,0,0,1-8,8.88C97.31,35,89.84,38.88,81.93,42.08a25.8,25.8,0,0,0,2.65,5.32c2.1,3.22,4.59,6,9.14,6.82a17.63,17.63,0,0,0,3.72.2,12.36,12.36,0,0,0,3.31-.67,23.17,23.17,0,0,0,9.74-6.22A32,32,0,0,0,116.86,38c1.85.54,3.86,1.21,5.74,1.86a33.63,33.63,0,0,1-8,12.92,39,39,0,0,1-12.3,8.53,37.57,37.57,0,0,1-17.49,3.24A26.45,26.45,0,0,1,69.44,59.1c3.74-2.84,7.61-5.57,10.54-9.24a71.66,71.66,0,0,1-12.86,9.47A38.94,38.94,0,0,1,55.27,64.2a18,18,0,0,1-5.18.4,4.33,4.33,0,0,1-4.24-4.37,9.33,9.33,0,0,1,.63-3.61c1.42-4.25,3.88-7.63,6.36-10.86.32-.4.64-.8,1-1.19a4.33,4.33,0,0,1,1-1.1,65.1,65.1,0,0,0-3.64,6.86c-.93,2.18-2.33,5.81-.44,8.08A4.53,4.53,0,0,0,54.44,60a30.81,30.81,0,0,0,12.88-2.81,5.3,5.3,0,0,0-.86-1,30.19,30.19,0,0,1-8-21,31.08,31.08,0,0,1,.89-6.84,30.68,30.68,0,0,1,4.74-10.73A38.19,38.19,0,0,1,86.54,1.33,30.77,30.77,0,0,1,100.23.46c4.28.87,7.59,2.65,9.77,5.66a5.46,5.46,0,0,1-.8.79C107.1,8.73,104.94,10.59,102.83,12.45Z" transform="translate(0 0.02)"/><path class="cls-2" d="M179.47,64.65h34.62c0-4.49,0-9.17,0-14.89-4.74-.05-8.86,0-13.45,0,0-18.73,0-32.81,0-49.77H179.47c0,20.77,0,38.17,0,64.66" transform="translate(0 0.02)"/><path class="cls-2" d="M397,0c-1.87,9-3.67,18.12-5.58,27.09C389.52,18,387.5,9,385.53,0h-19c-2,9-3.94,18.07-5.94,27.09C358.81,18,357,9,355.27,0h-18.1s0,.06,0,.1c3.73,21.49,7.42,43.11,11.18,64.56h18.76c3-12.35,5.86-24.86,8.82-37.19,2.73,12.36,5.4,24.91,8.19,37.19h18.67c4.09-20.14,8-40.44,12.09-60.58.28-1.37.63-2.7.79-4.08Z" transform="translate(0 0.02)"/><rect class="cls-3" x="423.77" y="25.08" width="22.29" height="15.11"/><rect class="cls-3" x="454.73" width="21.15" height="64.78"/><path class="cls-2" d="M545,64.78H522.44L507.32,43.59V27.39h7.1c7.91,0,11.57-1.66,11.57-7.36,0-6.1-3.66-7.63-11.57-7.43H502.53V64.78H481.38V0H516.8q24,.58,24.91,19.13.3,16.21-16,19.74Z" transform="translate(0 0.02)"/><path class="cls-2" d="M309.11,45.71a13.4,13.4,0,1,1,13.4-13.4A13.39,13.39,0,0,1,309.11,45.71ZM332.73,10.3a32.3,32.3,0,1,0,6,34.86Q335.74,27.74,332.73,10.3Z" transform="translate(0 0.02)"/><path class="cls-2" d="M271,32.32a37.94,37.94,0,0,1,10.84-26.6V0H260.6V24.68H240.74V0H219.5V64.65h21.24V39.92H260.6V64.65h21.25V58.93A38,38,0,0,1,271,32.32Z" transform="translate(0 0.02)"/><path class="cls-2" d="M139.45,64.65h34.63c0-4.49,0-9.17,0-14.89-4.74-.05-8.86,0-13.45,0,0-18.73,0-32.81,0-49.77H139.45C139.47,20.76,139.42,38.16,139.45,64.65Z" transform="translate(0 0.02)"/><path class="cls-2" d="M62,0H0V15H20.37V64.65H41.22c0-19.54,0-25.72,0-49.69H62C62,10.62,62.05,4.69,62,0Z" transform="translate(0 0.02)"/><path class="cls-2" d="M370.51,109.36l6.43,3.07.11.05a.43.43,0,0,0,.65-.39V112c0-2.16,0-4.26,0-6.41a.43.43,0,0,0-.24-.39l-5.87-2.8,2.66-17.12,0-.13a.43.43,0,0,0-.48-.48h-7.42a.44.44,0,0,0-.44.33l-6.68,42.91a.43.43,0,0,0,.44.53h7.47a.43.43,0,0,0,.43-.39V128Zm-216.46-25h22.35l.18-1.14a.44.44,0,0,1,.42-.35h8.26a.43.43,0,0,1,.44.51l-.15,1H208a.42.42,0,0,1,.43.48L208,88.06l0,.17a.42.42,0,0,1-.42.36H184.89l-.56,3.61H206.8a.43.43,0,0,1,.43.49l-.51,3.25,0,.17a.42.42,0,0,1-.42.36H183.66l-.58,3.75h22.48a.42.42,0,0,1,.43.49l-.51,3.25,0,.17a.42.42,0,0,1-.42.36H192l12.22,5.83a.42.42,0,0,1,.23.46l-.89,5.73a.43.43,0,0,1-.6.35l-23.86-11.39a2.3,2.3,0,0,0-2.51,0c-9,3.79-18.17,7.55-27.25,11.32l-.1,0a.43.43,0,0,1-.59-.44,1.36,1.36,0,0,1,0-.15l.86-5.54a.44.44,0,0,1,.25-.32l14.14-5.88H151a.43.43,0,0,1-.41-.51c0-.08,0-.16,0-.26l.49-3.16a.43.43,0,0,1,.42-.34h22.35l.58-3.75H152.29a.43.43,0,0,1-.41-.51c0-.08,0-.16,0-.26l.49-3.16a.43.43,0,0,1,.42-.34h22.35l.56-3.61H153.51a.43.43,0,0,1-.41-.51c0-.08,0-.16,0-.26l.49-3.16A.43.43,0,0,1,154.05,84.32ZM181.68,109l-2.92,19,0,.12a.42.42,0,0,1-.43.35h-.16c-2.74,0-5.39,0-8.13,0a.42.42,0,0,1-.41-.49s0-.09,0-.13l2.92-19a.44.44,0,0,1,.44-.31h8.27A.43.43,0,0,1,181.68,109Zm20.66,13.14-12.1-3.23,7.45-1.7.07,0a.43.43,0,0,0,.09-.83l-.07,0-5.95-2.9a.49.49,0,0,0-.4-.05l-7.71,1.92a.42.42,0,0,0-.31.36l-1.08,6.95a.43.43,0,0,0,.35.49l18.54,5.11.08,0a.41.41,0,0,0,.56-.34s0-.15,0-.17c.26-1.67.53-3.36.79-5A.45.45,0,0,0,202.34,122.14ZM148,122l13-2.85-10.13-.52a.42.42,0,0,1-.4-.32.42.42,0,0,1,.26-.5l.09,0,9.86-4.14a.45.45,0,0,1,.2,0l7.44.36a.43.43,0,0,1,.39.49l-.5,3.26-.26,1.72-.6,3.88a.42.42,0,0,1-.3.35l-19.76,4.54a.43.43,0,0,1-.5-.48c.29-1.83.56-3.54.86-5.37A.43.43,0,0,1,148,122Zm192.07-14.69-10.74-7.43,0,0a.43.43,0,0,0-.7.29v0l-1,6.6v.05a.42.42,0,0,0,.21.44l.06,0,8.29,5.74-9.93,14.62-.07.1a.43.43,0,0,0,0,.35.4.4,0,0,0,.37.28H334a.44.44,0,0,0,.42-.22l0-.05,28.17-40.54,0,0a.43.43,0,0,0-.34-.69h-16.5l.32-.35h0l1.92-2.15.18-.2h0l.5-.56,0,0a.43.43,0,0,0-.33-.77h-7.81a.5.5,0,0,0-.49.19l-1.28,1.43-.09.1-4.8,5.3a.68.68,0,0,0-.15.14l-3.13,3.49h0l-1.48,1.65,0,0a.43.43,0,0,0,.33.77h7.81a.5.5,0,0,0,.49-.19L341,92.31h0l1-1.1h9.69ZM265.23,124.2h20a.43.43,0,0,1,.43.49c-.13,1.14-.34,2.21-.52,3.35v.08a.42.42,0,0,1-.41.34H264a.44.44,0,0,1-.45-.57v0l.51-3.3a.43.43,0,0,1,.45-.37h.69Zm.84-9.85,14.58-12.79H268.3a.44.44,0,0,1-.44-.6l.57-3.78a.47.47,0,0,1,.16-.28L281,83.06a.49.49,0,0,1,.49-.19h7.81a.43.43,0,0,1,.33.77l0,0L277.6,97h11.9a.43.43,0,0,1,.41.53l-.76,4.68a.48.48,0,0,1-.22.41l-13.93,12h11.68a.43.43,0,0,1,.43.49c-.13,1.14-.35,2.21-.52,3.35v.08a.42.42,0,0,1-.41.34H265.68a.42.42,0,0,1-.44-.47l0-.1.56-3.51A.54.54,0,0,1,266.07,114.36Zm23.08,9.85h12.26l5.13-33H293.85a.44.44,0,0,1-.45-.57v0l.51-3.3a.43.43,0,0,1,.45-.37h30a.43.43,0,0,1,.43.5c-.13,1.14-.35,2.21-.52,3.35v.08a.42.42,0,0,1-.41.34h-8.18l-5.13,33h8a.43.43,0,0,1,.43.49c-.13,1.14-.34,2.21-.52,3.35v.08a.42.42,0,0,1-.41.34H287.89a.44.44,0,0,1-.45-.57v0l.51-3.3a.42.42,0,0,1,.45-.37h.74Zm-30.51-1.76-.11,0-8-3.19.2-.68c2.86-.47,5.82-1.06,8.64-1.49.23,0,.39-.13.43-.47v0c.25-1.46.55-3.06.79-4.54l0-.11a.43.43,0,0,0-.5-.47H260l-11.66,1.9a.42.42,0,0,0-.39.32l-2.71,9.15v0c-.08.33,0,.52.28.65l.09,0L257.3,128l.19.07a.43.43,0,0,0,.6-.29s0-.07,0-.11c.25-1.64.54-3,.79-4.68v-.08A.42.42,0,0,0,258.64,122.44Zm-44-7.48,3.59-10.11a.48.48,0,0,1,.58-.38h31.42v0l3.07,0a.43.43,0,0,1,.43.49c-.13,1.14-.35,2.21-.52,3.35v.08a.42.42,0,0,1-.41.34H222.4l-.71,2.13h24.46a.43.43,0,0,1,.48.49v0l-3,10-1.66,5.5h0l0,.09-.08.26-.08.26-.08.26-.08.26h0v0h0v0h-5.89l0-.09,2-6.27h0l2-6.17H237c-1.41,4.27-2.88,8.5-4.18,12.8l0,.06a.42.42,0,0,1-.45.31H227.3a.44.44,0,0,1-.38-.64l0-.09,4.17-12.48-2.43,0c-1.41,4.25-3.11,8.57-4.4,12.86l0,.06a.43.43,0,0,1-.45.31h-5.06a.44.44,0,0,1-.38-.64l0-.09,4.39-12.56h-2.32c-1.41,4.27-3.12,8.62-4.42,12.92l0,.06a.43.43,0,0,1-.45.31h-5.06a.44.44,0,0,1-.38-.64l0-.09L214.64,115Zm48-16.78v0l-.92,5.34a.43.43,0,0,1-.42.36h-6.17a.44.44,0,0,1-.46-.57v-.06L255,102H219l-.33,1.6a.43.43,0,0,1-.42.34h-6.39a.42.42,0,0,1-.41-.5c.3-1.77.6-3.54.91-5.31a.43.43,0,0,1,.49-.4h.07c16.52-.17,32.85,0,49.28,0h.07A.44.44,0,0,1,262.65,98.19Zm-2.83-1.76h-6.74a.44.44,0,0,1-.28-.13.43.43,0,0,1-.11-.4l.29-1.47H223.92l-.28,1.64a.43.43,0,0,1-.42.35H216.4a.43.43,0,0,1-.44-.54l0-.09c.37-1.76.76-3.56,1.14-5.31a.44.44,0,0,1,.46-.32h43.28a.44.44,0,0,1,.34.17.43.43,0,0,1,.07.37c-.38,1.83-.68,3.54-1,5.38A.42.42,0,0,1,259.82,96.43ZM235.69,83.6l.05-.32a.44.44,0,0,1,.42-.35h8.26a.43.43,0,0,1,.44.51l0,.17-.05.36-.06.36,19.55-.1a.43.43,0,0,1,.43.5c-.13,1.14-.35,2.21-.52,3.35v.08a.42.42,0,0,1-.42.34H241.27l-6.35.1H214.27a.44.44,0,0,1-.45-.57v0l.51-3.3a.43.43,0,0,1,.45-.36h20.78l.11-.72Z" transform="translate(0 0.02)"/></svg>