<?xml version="1.0" standalone="no"?><!DOCTYPE svg PUBLIC "-//W3C//DTD SVG 1.1//EN" "http://www.w3.org/Graphics/SVG/1.1/DTD/svg11.dtd"><svg t="1564452496301" class="icon" viewBox="0 0 1024 1024" version="1.1" xmlns="http://www.w3.org/2000/svg" p-id="25909" xmlns:xlink="http://www.w3.org/1999/xlink" width="64" height="64"><defs><style type="text/css"></style></defs><path d="M515.533 770.232c4.367 0 8.811-0.266 13.286-0.798 42.89-5.146 79.309-35.124 92.754-76.437a6.339 6.339 0 0 0-3.41-7.762c-2.928-1.362-6.471-0.184-8.12 2.586-0.159 0.266-17.198 27.791-83.543 36.751a217.549 217.549 0 0 1-28.754 2.028c-46.485-0.026-67.195-17.547-67.384-17.71a6.37 6.37 0 0 0-9.636 8.135c20.234 32.804 56.545 53.207 94.807 53.207z m356.72-411.156c-0.588 0-1.116 0.107-1.679 0.107-38.871-168.289-187.402-293.826-365.48-293.826-182.98 0-334.915 132.475-368.595 307.722-32.747 5.893-57.666 34.673-57.666 69.478v139.3c0 39.045 31.308 70.702 69.964 70.702 21.807 0 41.053-10.296 53.858-26.112 30.935 81.823 93.921 147.805 173.63 182.61 0.189-0.414 1.699-3.348 3.511-5.683 1.26-1.623 2.663-2.954 3.866-2.954 1.25 0 2.396 0.456 3.38 1.147-18.453-13.737-85.09-84.332-99.518-182.856-6.339-43.366 26.143-85.934 63.974-92.974 60.729-11.31 121.134-24.192 181.863-35.287 38.604-7.04 64.988-28.216 81.12-63.478 3.78-8.243 9.237-24.909 11.741-48.942 0.666-3.574 3.594-6.323 7.347-6.323 2.504 0 4.634 1.28 6.042 3.118l1.68-1.04c23.935 34.75 71.403 111.699 78.217 192.83 7.829 92.76 3.462 156.288-67.543 221.286a3.016 3.016 0 0 1-0.291 0.267 5.827 5.827 0 0 0-1.572 3.973c0 2.002 1.065 3.707 2.611 4.746 0.584 0.24 1.172 0.558 1.756 0.799 0.481 0.107 0.932 0.266 1.413 0.266s0.906-0.159 1.331-0.266c1.014-0.533 1.972-1.147 2.955-1.68A324.685 324.685 0 0 0 812.503 610.94a71.803 71.803 0 0 0 45.179 30.162C827.622 777.815 705.69 863.375 554.634 876.36c-9.052-22.457-31.334-38.405-57.508-38.405-34.18 0-61.9 27.069-61.9 60.436s27.714 60.41 61.9 60.41c27.556 0 50.637-17.71 58.65-42.03 174.858-14.217 315.028-118.148 344.29-279.638 25.85-10.803 44.006-36.168 44.006-65.772V430.408c0.01-39.378-32.154-71.332-71.819-71.332z m-64.506 40.489C762.143 276.029 643.963 187.776 504.94 187.776c-138.44 0-256.195 87.506-302.224 210.243-2.288-2.801-4.976-5.202-7.613-7.63 26.066-149.57 154.788-263.29 310-263.29 154.466 0 282.788 112.604 309.704 261.13-2.667 3.574-5.12 7.306-7.06 11.336zM376.294 809.062l-0.01-0.005c-0.03 0.067-0.03 0.077 0.01 0.005z" fill="" p-id="25910"></path></svg>