<?xml version="1.0" standalone="no"?><!DOCTYPE svg PUBLIC "-//W3C//DTD SVG 1.1//EN" "http://www.w3.org/Graphics/SVG/1.1/DTD/svg11.dtd"><svg t="1564452549952" class="icon" viewBox="0 0 1282 1024" version="1.1" xmlns="http://www.w3.org/2000/svg" p-id="26161" xmlns:xlink="http://www.w3.org/1999/xlink" width="80.125" height="64"><defs><style type="text/css"></style></defs><path d="M665.689819 10.114325C659.241848 3.664558 650.473468 0 641.328223 0s-17.850814 3.664558-24.365186 10.114325L366.195621 260.792011c-13.402019 13.497132-13.402019 35.258364 0 48.724988 13.52764 13.436116 35.324763 13.436116 48.724988 0l226.407614-226.40582 226.40582 226.40582c6.701009 6.670501 15.530406 10.019211 24.424407 10.019211 8.707364 0 17.599571-3.34871 24.302375-10.019211 13.402019-13.466624 13.402019-35.227855 0-48.724988L665.689819 10.114325M0 648.219459h147.242745v375.780541h68.768794V648.219459h147.242745v-68.82981H0v68.82981m742.850129-68.831604H560.472847c-21.983761 0-44.028538 8.423818-60.752348 25.178136-16.908653 16.847637-25.301963 38.831398-25.301963 60.842077v272.596843c0 21.983761 8.39331 43.99803 25.301963 60.815158 16.72381 16.78662 38.768587 25.178136 60.752348 25.178136h182.377282c21.85814 0 43.967522-8.39331 60.815158-25.178136 16.78662-16.815334 25.176342-38.831398 25.176342-60.815158V665.409863c0-22.012475-8.391516-43.996236-25.176342-60.842078a86.239154 86.239154 0 0 0-60.815158-25.17993m17.16169 358.61885c0 3.257186-0.877556 7.953635-5.073314 12.151188-4.071931 4.134742-8.894002 5.010503-12.088376 5.010503H560.472847c-3.257186 0-8.01824-0.875761-12.151187-5.010503-4.132947-4.195758-5.010503-8.892207-5.010503-12.151188V665.409863c0-3.255391 0.877556-7.953635 5.010503-12.151188 4.132947-4.193963 8.894002-5.042806 12.151187-5.042805h182.377282c3.194375 0 8.01824 0.847048 12.088376 5.042805 4.195758 4.195758 5.073314 8.894002 5.073314 12.151188v272.596842m497.529302-333.440714c-16.910447-16.754318-38.894208-25.178136-60.876175-25.178136H960.740606v444.61035h68.766999V828.999553h167.159135c21.981966 0 43.963933-8.391516 60.876175-25.206849 16.722015-16.784826 25.115325-38.799095 25.115325-60.782857v-77.59819a86.117122 86.117122 0 0 0-25.117119-60.845666m-43.714485 138.442062c0 3.194375-0.875761 7.95543-5.010503 12.151187-4.193963 4.132947-8.955018 5.010503-12.151187 5.010503h-167.159135v-111.952079h167.159135c3.19258 0 7.95543 0.847048 12.151187 5.042806 4.134742 4.195758 5.010503 8.894002 5.010503 12.151187v77.596396" p-id="26162"></path></svg>